<svg width="56" height="44" viewBox="0 0 56 44" fill="none" xmlns="http://www.w3.org/2000/svg">
<path d="M49.8123 33.9681C49.8123 43.0841 39.6435 45.0347 28.5504 42.0336C17.4572 46.5352 7.28853 43.0841 7.28853 33.9681C7.28853 24.852 16.8078 17.462 28.5504 17.462C40.293 17.462 49.8123 24.852 49.8123 33.9681Z" fill="#EF4CCB"/>
<path d="M26.7398 7.56895C27.5882 11.9526 25.2821 16.0907 21.5891 16.8117C17.896 17.5327 14.2144 14.5636 13.366 10.1799C12.5177 5.79632 14.8237 1.6582 18.5168 0.937194C22.2099 0.216189 25.8914 3.18533 26.7398 7.56895Z" fill="#EF4CCB"/>
<path d="M11.0547 11.8496C13.4113 14.9332 13.2157 19.0565 10.6178 21.0593C8.01995 23.062 4.00359 22.1858 1.64702 19.1022C-0.709542 16.0185 -0.513934 11.8952 2.08393 9.89248C4.68179 7.88975 8.69815 8.76598 11.0547 11.8496Z" fill="#EF4CCB"/>
<path d="M29.0544 6.73963C28.206 11.1233 30.5121 15.2614 34.2052 15.9824C37.8982 16.7034 41.5798 13.7342 42.4282 9.35063C43.2766 4.967 40.9705 0.828886 37.2775 0.10788C33.5844 -0.613126 29.9028 2.35601 29.0544 6.73963Z" fill="#EF4CCB"/>
<path d="M44.8098 11.1871C42.6278 14.3977 43.0516 18.5037 45.7564 20.3581C48.4612 22.2125 52.4228 21.1131 54.6048 17.9025C56.7868 14.692 56.363 10.586 53.6582 8.73156C50.9534 6.87714 46.9918 7.97653 44.8098 11.1871Z" fill="#EF4CCB"/>
</svg>
